<svg width="375" height="779" viewBox="0 0 375 779" fill="none" xmlns="http://www.w3.org/2000/svg">
<g filter="url(#filter0_d_163658_58)">
<path d="M0 779H375V0H80C35.8172 0 0 35.8172 0 80V779Z" fill="#6070FF"/>
<rect x="310" y="50.3994" width="74.7012" height="17.2106" transform="rotate(-23.1765 310 50.3994)" fill="#7F8CFF"/>
<path d="M412.207 71.4103C408.738 65.3223 403.869 60.1276 397.993 56.2466C392.117 52.3657 385.4 49.9077 378.384 49.0716C371.369 48.2356 364.253 49.045 357.613 51.4343C350.973 53.8235 344.995 57.7256 340.163 62.8244C335.332 67.9233 331.782 74.0756 329.803 80.7833C327.823 87.491 327.468 94.5655 328.767 101.434C330.066 108.302 332.983 114.772 337.281 120.318C341.579 125.865 347.137 130.332 353.505 133.359L361.894 116.101C358.266 114.377 355.099 111.831 352.651 108.672C350.202 105.512 348.541 101.826 347.801 97.9132C347.06 94.0003 347.263 89.9699 348.39 86.1486C349.518 82.3272 351.54 78.8222 354.293 75.9174C357.046 73.0126 360.451 70.7896 364.234 69.4285C368.017 68.0673 372.071 67.6062 376.067 68.0825C380.064 68.5588 383.891 69.9591 387.239 72.1701C390.586 74.381 393.36 77.3405 395.336 80.8088L412.207 71.4103Z" fill="white"/>
<circle cx="163.5" cy="65.5" r="10.5" fill="#7F8CFF"/>
<rect width="76.175" height="13.6273" transform="matrix(0.801365 0.598176 0.598176 -0.801365 258.805 674.889)" fill="#7F8CFF"/>
<circle cx="275.228" cy="708.219" r="15.5552" transform="rotate(48.9435 275.228 708.219)" fill="white"/>
</g>
<defs>
<filter id="filter0_d_163658_58" x="-4" y="0" width="420.207" height="787" filterUnits="userSpaceOnUse" color-interpolation-filters="sRGB">
<feFlood flood-opacity="0" result="BackgroundImageFix"/>
<feColorMatrix in="SourceAlpha" type="matrix" values="0 0 0 0 0 0 0 0 0 0 0 0 0 0 0 0 0 0 127 0" result="hardAlpha"/>
<feOffset dy="4"/>
<feGaussianBlur stdDeviation="2"/>
<feComposite in2="hardAlpha" operator="out"/>
<feColorMatrix type="matrix" values="0 0 0 0 0 0 0 0 0 0 0 0 0 0 0 0 0 0 0.25 0"/>
<feBlend mode="normal" in2="BackgroundImageFix" result="effect1_dropShadow_163658_58"/>
<feBlend mode="normal" in="SourceGraphic" in2="effect1_dropShadow_163658_58" result="shape"/>
</filter>
</defs>
</svg>
